#!OML:ASF F:\VICON\USERDATA\INSTALL\rory3\rory3.ASF
:FULLY-SPECIFIED
:DEGREES
289
root -1.1886 17.7619 8.19766 10.0368 -81.3056 -10.1779
lowerback 9.59013 2.67514 3.0071
upperback 1.70124 3.83798 0.785044
thorax -3.45388 1.85261 -1.34192
lowerneck -17.4686 -7.91724 -13.2953
upperneck 27.1193 -11.3363 11.5159
head 13.548 -5.09587 4.76461
rclavicle 4.47266e-015 -5.56597e-015
rhumerus -24.0734 -5.42745 -86.7746
rradius 38.5501
rwrist 2.57216
rhand -16.0916 9.29136
rfingers 7.12502
rthumb 10.1118 -20.4457
lclavicle 4.47266e-015 -5.56597e-015
lhumerus -37.8163 5.40182 84.3332
lradius 29.266
lwrist -8.87203
lhand -14.7165 26.8149
lfingers 7.12502
lthumb 11.4382 56.4828
rfemur 11.147 6.06217 29.422
rtibia 20.8009
rfoot -12.6993 7.61956
rtoes 13.0934
lfemur -19.6699 -4.18356 -15.6112
ltibia 14.7973
lfoot -3.80915 -5.33272
ltoes -22.2442
290
root -1.33022 17.7771 8.25301 10.656 -81.7449 -10.7506
lowerback 9.35416 2.71198 2.88495
upperback 1.70544 3.86832 0.824044
thorax -3.32834 1.87197 -1.22416
lowerneck -17.4131 -7.85643 -13.2973
upperneck 27.1076 -11.2439 11.486
head 13.5139 -5.06249 4.77167
rclavicle 1.05356e-013 5.1684e-015
rhumerus -24.1939 -5.75272 -86.6441
rradius 38.1638
rwrist 2.90256
rhand -16.0534 9.15057
rfingers 7.12502
rthumb 10.1486 -20.5847
lclavicle 1.05356e-013 5.1684e-015
lhumerus -37.6945 5.64274 84.2016
lradius 29.0931
lwrist -9.07444
lhand -14.6212 26.9008
lfingers 7.12502
lthumb 11.5301 56.5637
rfemur 11.1326 6.42657 29.3529
rtibia 21.7153
rfoot -12.1363 7.71667
rtoes 14.6248
lfemur -19.3317 -4.31815 -15.6293
ltibia 15.0026
lfoot -2.27624 -6.09237
ltoes -16.301
291
root -1.47479 17.7901 8.31018 10.0679 -82.2594 -10.0971
lowerback 9.11153 2.77676 2.59121
upperback 1.6928 3.91915 0.803434
thorax -3.22341 1.90286 -1.07488
lowerneck -17.2366 -7.78042 -13.4577
upperneck 27.0361 -11.1651 11.6817
head 13.4597 -5.03035 4.89599
rclavicle -3.3197e-014 -3.18055e-015
rhumerus -24.4821 -5.93886 -86.5225
rradius 37.9311
rwrist 2.8607
rhand -16.4056 8.93277
rfingers 7.12502
rthumb 9.80886 -20.8188
lclavicle -3.3197e-014 -3.18055e-015
lhumerus -37.5897 5.86139 84.0567
lradius 28.9022
lwrist -9.24345
lhand -14.5523 26.933
lfingers 7.12502
lthumb 11.5966 56.5921
rfemur 10.9955 6.62418 29.0276
rtibia 22.8121
rfoot -11.4617 7.90403
rtoes 14.7741
lfemur -18.9099 -4.46887 -15.8524
ltibia 15.0999
lfoot -0.973703 -6.20445
ltoes -13.4872
292
root -1.62258 17.8011 8.36658 7.79553 -82.7811 -7.83057
lowerback 8.96094 2.84661 2.15761
upperback 1.68545 3.96443 0.681757
thorax -3.16694 1.93114 -0.956138
lowerneck -17.1182 -7.81459 -13.4217
upperneck 27.076 -11.263 11.697
head 13.4657 -5.07509 4.88059
rclavicle -1.00138e-013 2.38542e-015
rhumerus -24.8207 -6.47224 -86.3992
rradius 37.6326
rwrist 3.10173
rhand -16.3008 9.073
rfingers 7.12502
rthumb 9.90999 -20.6738
lclavicle -1.00138e-013 2.38542e-015
lhumerus -37.4867 5.79222 83.9451
lradius 28.6775
lwrist -9.07059
lhand -14.5197 26.993
lfingers 7.12502
lthumb 11.628 56.6503
rfemur 10.8207 6.62153 28.3958
rtibia 24.1432
rfoot -10.7318 8.45971
rtoes 14.7285
lfemur -18.2439 -4.38617 -16.419
ltibia 15.0157
lfoot -0.307023 -6.23636
ltoes -15.3747
293
root -1.77424 17.8207 8.41365 5.43848 -83.406 -5.44287
lowerback 8.79367 2.98768 1.65156
upperback 1.63594 4.10099 0.575615
thorax -3.14942 2.00488 -0.791452
lowerneck -16.9727 -7.96868 -13.3194
upperneck 27.1342 -11.5244 11.5837
head 13.4854 -5.20045 4.77012
rclavicle 2.98922e-014 -8.74653e-015
rhumerus -25.197 -6.78587 -86.3092
rradius 37.2361
rwrist 3.15173
rhand -16.2308 9.1676
rfingers 7.12502
rthumb 9.97748 -20.5759
lclavicle 2.98922e-014 -8.74653e-015
lhumerus -37.4078 5.72668 83.7972
lradius 28.4482
lwrist -8.84642
lhand -14.6607 27.153
lfingers 7.12502
lthumb 11.492 56.818
rfemur 10.4685 6.90075 27.8584
rtibia 25.6964
rfoot -9.92503 8.76818
rtoes 14.0393
lfemur -17.4905 -3.81154 -17.0071
ltibia 14.6847
lfoot 0.231187 -6.63434
ltoes -15.5123
294
root -1.92034 17.8392 8.45503 1.44456 -83.8842 -1.41079
lowerback 8.7795 3.10701 0.92838
upperback 1.50869 4.19433 0.467771
thorax -3.31539 2.05764 -0.515079
lowerneck -16.7844 -8.02027 -13.1972
upperneck 27.2439 -11.6669 11.5048
head 13.4988 -5.27107 4.69673
rclavicle -1.27471e-014 -1.98785e-015
rhumerus -25.672 -6.96233 -86.1894
rradius 36.792
rwrist 2.98427
rhand -16.3896 9.01294
rfingers 7.12502
rthumb 9.82426 -20.7379
lclavicle -1.27471e-014 -1.98785e-015
lhumerus -37.4314 5.84112 83.5927
lradius 28.2287
lwrist -8.9007
lhand -14.9216 27.2752
lfingers 7.12502
lthumb 11.2404 56.9541
rfemur 9.97763 7.09238 27.2504
rtibia 27.3953
rfoot -8.9944 8.85944
rtoes 12.8037
lfemur -16.7859 -2.9977 -17.7361
ltibia 14.3014
lfoot 0.675368 -7.26874
ltoes -15.5771
295
root -2.06668 17.844 8.52914 -3.39981 -83.3409 2.91022
lowerback 9.19684 2.81787 0.751341
upperback 1.60775 3.78517 0.263607
thorax -3.44686 1.85297 -0.600087
lowerneck -16.6573 -7.99553 -13.0962
upperneck 27.3259 -11.6996 11.501
head 13.5032 -5.28429 4.67709
rclavicle 3.62782e-015 -7.95139e-016
rhumerus -25.9805 -7.68368 -86.0105
rradius 36.1764
rwrist 3.46301
rhand -16.2301 9.12916
rfingers 7.12502
rthumb 9.97818 -20.6143
lclavicle 3.62782e-015 -7.95139e-016
lhumerus -37.3591 5.85374 83.3936
lradius 27.9578
lwrist -8.89948
lhand -14.9379 27.1265
lfingers 7.12502
lthumb 11.2247 56.8063
rfemur 10.0031 6.03976 26.4515
rtibia 29.1822
rfoot -7.95207 9.18315
rtoes 12.4167
lfemur -15.6372 -3.2441 -18.6032
ltibia 14.0265
lfoot 0.887589 -7.5756
ltoes -16.7849
